<?xml version="1.0" encoding="UTF-8" standalone="no"?>
<!-- Created with Inkscape (http://www.inkscape.org/) -->

<svg
   xmlns:dc="http://purl.org/dc/elements/1.1/"
   xmlns:cc="http://creativecommons.org/ns#"
   xmlns:rdf="http://www.w3.org/1999/02/22-rdf-syntax-ns#"
   xmlns:svg="http://www.w3.org/2000/svg"
   xmlns="http://www.w3.org/2000/svg"
   xmlns:sodipodi="http://sodipodi.sourceforge.net/DTD/sodipodi-0.dtd"
   xmlns:inkscape="http://www.inkscape.org/namespaces/inkscape"
   width="744.09448819"
   height="1052.3622047"
   id="svg2"
   version="1.1"
   inkscape:version="0.48.4 r9939"
   sodipodi:docname="New document 1">
  <defs
     id="defs4" />
  <sodipodi:namedview
     id="base"
     pagecolor="#ffffff"
     bordercolor="#666666"
     borderopacity="1.0"
     inkscape:pageopacity="0.0"
     inkscape:pageshadow="2"
     inkscape:zoom="0.5"
     inkscape:cx="793.6349"
     inkscape:cy="412.84063"
     inkscape:document-units="px"
     inkscape:current-layer="layer1"
     showgrid="false"
     inkscape:window-width="1680"
     inkscape:window-height="987"
     inkscape:window-x="1596"
     inkscape:window-y="-4"
     inkscape:window-maximized="1" />
  <metadata
     id="metadata7">
    <rdf:RDF>
      <cc:Work
         rdf:about="">
        <dc:format>image/svg+xml</dc:format>
        <dc:type
           rdf:resource="http://purl.org/dc/dcmitype/StillImage" />
        <dc:title></dc:title>
      </cc:Work>
    </rdf:RDF>
  </metadata>
  <g
     inkscape:label="Layer 1"
     inkscape:groupmode="layer"
     id="layer1">
    <g
       id="g3883"
       transform="matrix(2.2883185,0,0,2.3082609,-261.98394,-543.79905)"
       inkscape:export-filename="C:\sharp_cookie.png"
       inkscape:export-xdpi="45"
       inkscape:export-ydpi="45">
      <path
         d="m 219.65073,340.86844 -0.9729,1.06689 c -2.42678,-1.34845 -4.69769,-2.02268 -6.81275,-2.0227 -2.11508,2e-5 -3.64421,0.30519 -4.5874,0.91553 -0.9432,0.61036 -1.4148,1.39161 -1.4148,2.34375 0,0.95216 1.04696,1.8394 3.14087,2.66174 2.09391,0.82236 4.39188,1.7212 6.89392,2.69653 2.50202,0.97535 3.75304,2.25343 3.75306,3.83423 -2e-5,1.58081 -0.66022,2.81149 -1.98059,3.69202 -1.32041,0.88053 -3.25502,1.3208 -5.80384,1.3208 -2.54883,0 -5.14283,-0.88338 -7.78198,-2.65015 l 0.9668,-1.073 c 2.41942,1.34848 4.69013,2.02271 6.81213,2.02271 2.12198,0 3.65396,-0.30477 4.59595,-0.91431 0.94196,-0.60953 1.41295,-1.38936 1.41296,-2.33948 -1e-5,-0.9501 -1.04799,-1.83674 -3.14392,-2.65991 -2.09596,-0.82315 -4.39393,-1.72199 -6.89392,-2.69653 -2.5,-0.97452 -3.75,-2.2532 -3.75,-3.83606 0,-1.58283 0.6608,-2.81493 1.98242,-3.69629 1.32161,-0.88133 3.25357,-1.322 5.7959,-1.32202 2.5423,2e-5 5.13833,0.88543 7.78809,2.65625 z"
         style="font-size:40px;font-style:normal;font-variant:normal;font-weight:bold;font-stretch:normal;line-height:125%;letter-spacing:0px;word-spacing:0px;fill:#000000;fill-opacity:1;stroke:none;font-family:Secret Code;-inkscape-font-specification:Secret Code Bold"
         id="path3821"
         inkscape:connector-curvature="0" />
      <path
         d="m 240.42587,357.37723 0,-9.58252 c -2e-5,-2.10855 -0.68951,-3.94937 -2.06848,-5.52246 -1.379,-1.57307 -3.09958,-2.3596 -5.16174,-2.35962 -1.8742,2e-5 -3.43792,0.36216 -4.69116,1.08642 -1.25326,0.7243 -2.11996,1.3611 -2.6001,1.9104 l 0.061,14.46778 -1.77856,0 0,-28.35694 1.77856,0 -0.061,12.25586 c 0.0887,-0.50372 0.75296,-1.14032 1.9928,-1.90979 1.23982,-0.76943 3.00597,-1.15415 5.29846,-1.15417 2.58218,2e-5 4.72919,0.96274 6.44104,2.88818 1.71181,1.92547 2.56773,4.15692 2.56775,6.69434 l 0,9.58252 z"
         style="font-size:40px;font-style:normal;font-variant:normal;font-weight:bold;font-stretch:normal;line-height:125%;letter-spacing:0px;word-spacing:0px;fill:#000000;fill-opacity:1;stroke:none;font-family:Secret Code;-inkscape-font-specification:Secret Code Bold"
         id="path3823"
         inkscape:connector-curvature="0" />
      <path
         d="m 263.53256,357.37723 -1.77856,0 0,-1.83838 c -2.29657,1.22559 -4.79351,1.83838 -7.49085,1.83838 -2.69735,0 -4.82971,-0.50069 -6.39709,-1.50208 -1.56739,-1.00138 -2.35108,-2.43001 -2.35108,-4.28589 0,-1.85586 0.86914,-3.27269 2.60743,-4.25048 1.73827,-0.97778 3.87206,-1.46667 6.40136,-1.46668 3.15429,1e-5 5.14098,-0.0978 5.96009,-0.29358 0.81907,-0.19571 1.24245,-0.48399 1.27014,-0.86487 -2e-5,-1.32648 -0.65981,-2.45827 -1.97937,-3.39538 -1.3196,-0.93708 -3.07456,-1.40562 -5.26489,-1.40564 -2.19036,2e-5 -3.74493,0.27752 -4.6637,0.83252 -0.91879,0.55503 -1.62517,1.11492 -2.11914,1.67969 l -1.1084,-0.92652 c 0.3011,-0.71369 1.05977,-1.4398 2.276,-2.17834 1.21622,-0.73851 3.0961,-1.10777 5.63965,-1.10779 2.54352,2e-5 4.67914,0.6478 6.40686,1.94336 1.72768,1.29559 2.59153,2.82065 2.59155,4.57519 z m -1.77856,-3.45337 0.36865,-7.8418 c 0.28644,0.63885 -0.41241,1.04697 -2.09656,1.22437 -1.68418,0.17742 -3.51828,0.26612 -5.50232,0.26611 -2.12484,10e-6 -3.86109,0.37965 -5.20874,1.13892 -1.34766,0.75928 -2.02149,1.74337 -2.02148,2.95227 -1e-5,1.2089 0.61116,2.17997 1.83349,2.9132 1.22233,0.73324 2.94372,1.09986 5.16419,1.09986 2.22045,0 4.70803,-0.58431 7.46277,-1.75293 z"
         style="font-size:40px;font-style:normal;font-variant:normal;font-weight:bold;font-stretch:normal;line-height:125%;letter-spacing:0px;word-spacing:0px;fill:#000000;fill-opacity:1;stroke:none;font-family:Secret Code;-inkscape-font-specification:Secret Code Bold"
         id="path3825"
         inkscape:connector-curvature="0" />
      <path
         d="m 282.53647,342.39432 c -1.57717,-1.65445 -3.39683,-2.48167 -5.45899,-2.48169 -1.87419,2e-5 -3.43791,0.36216 -4.69116,1.08642 -1.25326,0.7243 -2.11996,1.3611 -2.6001,1.9104 l 0.061,14.46778 -1.77856,0 0,-19.16504 1.77856,0 -0.061,3.06396 c 0.0887,-0.50372 0.75297,-1.14032 1.9928,-1.90979 1.23982,-0.76943 3.00597,-1.15415 5.29846,-1.15417 2.58218,2e-5 4.76805,1.05633 6.55762,3.16894 z"
         style="font-size:40px;font-style:normal;font-variant:normal;font-weight:bold;font-stretch:normal;line-height:125%;letter-spacing:0px;word-spacing:0px;fill:#000000;fill-opacity:1;stroke:none;font-family:Secret Code;-inkscape-font-specification:Secret Code Bold"
         id="path3827"
         inkscape:connector-curvature="0" />
      <path
         d="m 297.18002,357.37723 c -2.5765,0 -4.61202,-0.72612 -6.10656,-2.17835 -1.49455,-1.45222 -2.07337,-2.36022 -1.73645,-2.724 l 0,14.09424 -1.77857,0 0,-28.35693 1.77857,0 0,4.90234 c -0.33692,-0.3605 0.24291,-1.26768 1.7395,-2.72156 1.49657,-1.45383 3.53108,-2.18076 6.10351,-2.18078 2.57567,2e-5 4.82319,0.95969 6.74256,2.87903 1.91933,1.91936 2.879,4.15386 2.87903,6.70349 -3e-5,2.55372 -0.95868,4.78923 -2.87598,6.70654 -1.91733,1.91732 -4.16587,2.87598 -6.74561,2.87598 z m 0,-1.70044 c 2.07763,0 3.9042,-0.78776 5.47974,-2.36328 1.5755,-1.57552 2.36326,-3.41512 2.36328,-5.5188 -2e-5,-2.0996 -0.78879,-3.93818 -2.36633,-5.51575 -1.57757,-1.57754 -3.40313,-2.36631 -5.47669,-2.36633 -2.07764,2e-5 -3.90422,0.78778 -5.47973,2.36328 -1.57553,1.57553 -2.36329,3.41513 -2.36328,5.5188 -1e-5,2.10775 0.78673,3.94837 2.36023,5.52185 1.57347,1.57349 3.40107,2.36023 5.48278,2.36023 z"
         style="font-size:40px;font-style:normal;font-variant:normal;font-weight:bold;font-stretch:normal;line-height:125%;letter-spacing:0px;word-spacing:0px;fill:#000000;fill-opacity:1;stroke:none;font-family:Secret Code;-inkscape-font-specification:Secret Code Bold"
         id="path3829"
         inkscape:connector-curvature="0" />
      <g
         style="fill:#00ccff"
         id="g3874">
        <path
           inkscape:connector-curvature="0"
           id="path3839"
           style="font-size:58.88996506px;font-style:normal;font-variant:normal;font-weight:normal;font-stretch:normal;line-height:125%;letter-spacing:0px;word-spacing:0px;fill:#00ccff;fill-opacity:0.99754902;stroke:none;font-family:Segoe UI;-inkscape-font-specification:Segoe UI"
           d="m 234.1211,413.2502 c -3.04805,1.61028 -6.84368,2.41541 -11.38693,2.41541 -5.86601,0 -10.56263,-1.88823 -14.08988,-5.66471 -3.52727,-3.77646 -5.2909,-8.73188 -5.2909,-14.86626 0,-6.59443 1.98408,-11.92366 5.95226,-15.98771 3.96816,-4.06398 9.00026,-6.09599 15.09631,-6.09603 3.91063,4e-5 7.15034,0.56555 9.71914,1.69654 l 0,5.14712 c -2.9522,-1.64858 -6.21108,-2.47288 -9.77665,-2.47292 -4.73499,4e-5 -8.57376,1.58155 -11.51633,4.74455 -2.94259,3.16307 -4.41388,7.39003 -4.41387,12.6809 -1e-5,5.02253 1.37543,9.02424 4.12632,12.00515 2.75087,2.98093 6.3596,4.47139 10.82621,4.47139 4.14067,0 7.72544,-0.92015 10.75432,-2.76047 z" />
        <path
           inkscape:connector-curvature="0"
           id="path3841"
           style="font-size:58.88996506px;font-style:normal;font-variant:normal;font-weight:normal;font-stretch:normal;line-height:125%;letter-spacing:0px;word-spacing:0px;fill:#00ccff;fill-opacity:0.99754902;stroke:none;font-family:Segoe UI;-inkscape-font-specification:Segoe UI"
           d="m 254.192,415.66561 c -4.35159,0 -7.82613,-1.37544 -10.42364,-4.12632 -2.59753,-2.75088 -3.89629,-6.39795 -3.89629,-10.94123 0,-4.94582 1.35148,-8.80855 4.05444,-11.58821 2.70295,-2.77961 6.35481,-4.16942 10.9556,-4.16945 4.38989,3e-5 7.81651,1.3515 10.27987,4.05443 2.4633,2.70298 3.69497,6.4507 3.695,11.24315 -3e-5,4.69664 -1.32755,8.45873 -3.98255,11.28629 -2.65506,2.82756 -6.21587,4.24134 -10.68243,4.24134 z m 0.34506,-26.85704 c -3.02887,2e-5 -5.4251,1.0304 -7.18872,3.09114 -1.76364,2.06079 -2.64546,4.90273 -2.64545,8.52582 -1e-5,3.48894 0.89139,6.23982 2.6742,8.25265 1.78279,2.01284 4.16944,3.01926 7.15997,3.01926 3.04799,0 5.39151,-0.98725 7.03056,-2.96175 1.639,-1.97449 2.45851,-4.78288 2.45854,-8.42518 -3e-5,-3.6806 -0.81954,-6.51775 -2.45854,-8.51144 -1.63905,-1.99364 -3.98257,-2.99048 -7.03056,-2.9905 z" />
        <path
           inkscape:connector-curvature="0"
           id="path3843"
           style="font-size:58.88996506px;font-style:normal;font-variant:normal;font-weight:normal;font-stretch:normal;line-height:125%;letter-spacing:0px;word-spacing:0px;fill:#00ccff;fill-opacity:0.99754902;stroke:none;font-family:Segoe UI;-inkscape-font-specification:Segoe UI"
           d="m 288.69784,415.66561 c -4.35159,0 -7.82613,-1.37544 -10.42364,-4.12632 -2.59753,-2.75088 -3.89629,-6.39795 -3.89629,-10.94123 0,-4.94582 1.35148,-8.80855 4.05444,-11.58821 2.70295,-2.77961 6.35481,-4.16942 10.9556,-4.16945 4.38989,3e-5 7.81651,1.3515 10.27987,4.05443 2.4633,2.70298 3.69497,6.4507 3.695,11.24315 -3e-5,4.69664 -1.32755,8.45873 -3.98255,11.28629 -2.65506,2.82756 -6.21587,4.24134 -10.68243,4.24134 z m 0.34506,-26.85704 c -3.02886,2e-5 -5.4251,1.0304 -7.18872,3.09114 -1.76364,2.06079 -2.64546,4.90273 -2.64545,8.52582 -10e-6,3.48894 0.89139,6.23982 2.6742,8.25265 1.78279,2.01284 4.16945,3.01926 7.15997,3.01926 3.04799,0 5.39151,-0.98725 7.03056,-2.96175 1.639,-1.97449 2.45851,-4.78288 2.45854,-8.42518 -3e-5,-3.6806 -0.81954,-6.51775 -2.45854,-8.51144 -1.63905,-1.99364 -3.98257,-2.99048 -7.03056,-2.9905 z" />
        <path
           inkscape:connector-curvature="0"
           id="path3845"
           style="font-size:58.88996506px;font-style:normal;font-variant:normal;font-weight:normal;font-stretch:normal;line-height:125%;letter-spacing:0px;word-spacing:0px;fill:#00ccff;fill-opacity:0.99754902;stroke:none;font-family:Segoe UI;-inkscape-font-specification:Segoe UI"
           d="m 335.33823,414.97549 -6.61361,0 -12.9972,-14.14739 -0.11502,0 0,14.14739 -4.7158,0 0,-43.59237 4.7158,0 0,27.63342 0.11502,0 12.36459,-13.48603 6.18229,0 -13.65856,14.20491 z" />
        <path
           inkscape:connector-curvature="0"
           id="path3847"
           style="font-size:58.88996506px;font-style:normal;font-variant:normal;font-weight:normal;font-stretch:normal;line-height:125%;letter-spacing:0px;word-spacing:0px;fill:#00ccff;fill-opacity:0.99754902;stroke:none;font-family:Segoe UI;-inkscape-font-specification:Segoe UI"
           d="m 342.64196,378.05425 c -0.84348,3e-5 -1.56235,-0.28751 -2.15661,-0.86265 -0.59427,-0.57506 -0.89141,-1.30351 -0.8914,-2.18537 -1e-5,-0.88177 0.29713,-1.61502 0.8914,-2.19975 0.59426,-0.58464 1.31313,-0.87698 2.15661,-0.87702 0.86264,4e-5 1.59589,0.29238 2.19975,0.87702 0.60384,0.58473 0.90577,1.31798 0.90578,2.19975 -1e-5,0.84352 -0.30194,1.56239 -0.90578,2.15662 -0.60386,0.5943 -1.33711,0.89143 -2.19975,0.8914 z m 2.30039,36.92124 -4.7158,0 0,-29.44498 4.7158,0 z" />
        <path
           inkscape:connector-curvature="0"
           id="path3849"
           style="font-size:58.88996506px;font-style:normal;font-variant:normal;font-weight:normal;font-stretch:normal;line-height:125%;letter-spacing:0px;word-spacing:0px;fill:#00ccff;fill-opacity:0.99754902;stroke:none;font-family:Segoe UI;-inkscape-font-specification:Segoe UI"
           d="m 378.15423,401.43195 -20.78977,0 c 0.0767,3.27807 0.95849,5.80849 2.64545,7.59129 1.68694,1.7828 4.0065,2.6742 6.95868,2.6742 3.31637,0 6.36438,-1.09268 9.14404,-3.27806 l 0,4.42825 c -2.58796,1.87866 -6.00978,2.81798 -10.26548,2.81798 -4.15989,0 -7.42835,-1.3371 -9.80541,-4.0113 -2.37707,-2.6742 -3.56561,-6.43629 -3.56561,-11.28629 0,-4.58159 1.29876,-8.31492 3.89629,-11.20002 2.59751,-2.88504 5.82285,-4.32757 9.67601,-4.3276 3.85313,3e-5 6.83405,1.24607 8.94276,3.73813 2.10867,2.49211 3.16301,5.95228 3.16304,10.3805 z m -4.83082,-3.99692 c -0.0192,-2.72211 -0.67576,-4.84038 -1.96971,-6.35483 -1.29399,-1.5144 -3.09116,-2.27161 -5.39153,-2.27163 -2.22373,2e-5 -4.11196,0.79557 -5.66471,2.38665 -1.55277,1.59113 -2.51127,3.67106 -2.87549,6.23981 z" />
        <path
           style="fill:#00ccff;fill-opacity:0.99754902;stroke:none"
           d="m 378.15423,346.36615 0,2.85714 -67.25335,0 c 9.56942,-9.3459 50.82789,-2.85714 67.25335,-2.85714 z"
           id="rect3050"
           inkscape:connector-curvature="0"
           sodipodi:nodetypes="cccc" />
      </g>
    </g>
  </g>
</svg>
